REM DIRINDEX 1\2\6,1\2\7,1\2\8,1\3\9,1\3\10,1\3\11,1\4\12,1\4\13,1\4\14,1\5\15,1\5\16,1\5\17,1\5\18
REM DIRNAME folder01,folder02,folder03,folder04,folder05,folder06,folder07,folder08,folder09,folder10,folder11,folder12,folder13,folder14,folder15,folder16,folder17,folder18
TITLE ""
FILE "2Q_t_0654-0671.mp3" MP3
  TRACK 01 AUDIO
    TITLE "13:cjc019_3367"
    INDEX 01 00:00:00
  TRACK 02 AUDIO
    TITLE "0:"
    INDEX 01 00:01:09
  TRACK 03 AUDIO
    TITLE "14:cjc019_3368"
    INDEX 01 00:01:64
  TRACK 04 AUDIO
    TITLE "0:"
    INDEX 01 00:03:06
  TRACK 05 AUDIO
    TITLE "13:cjc019_3369"
    INDEX 01 00:03:55
  TRACK 06 AUDIO
    TITLE "0:"
    INDEX 01 00:05:18
  TRACK 07 AUDIO
    TITLE "14:cjc019_3370"
    INDEX 01 00:06:02
  TRACK 08 AUDIO
    TITLE "0:"
    INDEX 01 00:09:69
  TRACK 09 AUDIO
    TITLE "13:cjc019_3371"
    INDEX 01 00:10:47
  TRACK 10 AUDIO
    TITLE "0:"
    INDEX 01 00:11:62
  TRACK 11 AUDIO
    TITLE "14:cjc019_3372"
    INDEX 01 00:12:44
  TRACK 12 AUDIO
    TITLE "0:"
    INDEX 01 00:14:33
  TRACK 13 AUDIO
    TITLE "13:cjc019_3373"
    INDEX 01 00:15:09
  TRACK 14 AUDIO
    TITLE "0:"
    INDEX 01 00:16:38
  TRACK 15 AUDIO
    TITLE "14:cjc019_3374"
    INDEX 01 00:17:33
  TRACK 16 AUDIO
    TITLE "0:"
    INDEX 01 00:19:54
  TRACK 17 AUDIO
    TITLE "13:cjc019_3375"
    INDEX 01 00:20:41
  TRACK 18 AUDIO
    TITLE "0:"
    INDEX 01 00:21:72
  TRACK 19 AUDIO
    TITLE "14:cjc019_3376"
    INDEX 01 00:22:56
  TRACK 20 AUDIO
    TITLE "0:"
    INDEX 01 00:23:48
  TRACK 21 AUDIO
    TITLE "13:cjc019_3377"
    INDEX 01 00:24:27
  TRACK 22 AUDIO
    TITLE "0:"
    INDEX 01 00:25:46
  TRACK 23 AUDIO
    TITLE "14:cjc019_3378"
    INDEX 01 00:26:30
  TRACK 24 AUDIO
    TITLE "0:"
    INDEX 01 00:28:66
  TRACK 25 AUDIO
    TITLE "13:cjc019_3379"
    INDEX 01 00:29:50
  TRACK 26 AUDIO
    TITLE "0:"
    INDEX 01 00:30:63
  TRACK 27 AUDIO
    TITLE "14:cjc019_3380"
    INDEX 01 00:31:35
  TRACK 28 AUDIO
    TITLE "0:"
    INDEX 01 00:33:62
  TRACK 29 AUDIO
    TITLE "13:cjc019_3381"
    INDEX 01 00:34:43
  TRACK 30 AUDIO
    TITLE "0:"
    INDEX 01 00:36:11
  TRACK 31 AUDIO
    TITLE "14:cjc019_3382"
    INDEX 01 00:36:70
  TRACK 32 AUDIO
    TITLE "0:"
    INDEX 01 00:39:68
  TRACK 33 AUDIO
    TITLE "13:cjc019_3383"
    INDEX 01 00:40:50
  TRACK 34 AUDIO
    TITLE "0:"
    INDEX 01 00:41:63
  TRACK 35 AUDIO
    TITLE "14:cjc019_3384"
    INDEX 01 00:42:49
  TRACK 36 AUDIO
    TITLE "0:"
    INDEX 01 00:44:60
  TRACK 37 AUDIO
    TITLE "13:cjc019_3385"
    INDEX 01 00:45:43
  TRACK 38 AUDIO
    TITLE "0:"
    INDEX 01 00:46:56
  TRACK 39 AUDIO
    TITLE "14:cjc019_3386"
    INDEX 01 00:47:40
  TRACK 40 AUDIO
    TITLE "0:"
    INDEX 01 00:50:74
  TRACK 41 AUDIO
    TITLE "13:cjc019_3387"
    INDEX 01 00:51:58
  TRACK 42 AUDIO
    TITLE "0:"
    INDEX 01 00:52:71
  TRACK 43 AUDIO
    TITLE "14:cjc019_3388"
    INDEX 01 00:53:60
  TRACK 44 AUDIO
    TITLE "0:"
    INDEX 01 00:54:68
  TRACK 45 AUDIO
    TITLE "13:cjc019_3389"
    INDEX 01 00:55:48
  TRACK 46 AUDIO
    TITLE "0:"
    INDEX 01 00:56:47
  TRACK 47 AUDIO
    TITLE "14:cjc019_3390"
    INDEX 01 00:57:27
  TRACK 48 AUDIO
    TITLE "0:"
    INDEX 01 00:59:57
  TRACK 49 AUDIO
    TITLE "13:cjc019_3391"
    INDEX 01 01:00:29
  TRACK 50 AUDIO
    TITLE "0:"
    INDEX 01 01:01:62
  TRACK 51 AUDIO
    TITLE "14:cjc019_3392"
    INDEX 01 01:02:46
  TRACK 52 AUDIO
    TITLE "0:"
    INDEX 01 01:05:03
  TRACK 53 AUDIO
    TITLE "13:cjc019_3393"
    INDEX 01 01:05:58
  TRACK 54 AUDIO
    TITLE "0:"
    INDEX 01 01:07:02
  TRACK 55 AUDIO
    TITLE "14:cjc019_3394"
    INDEX 01 01:07:57
  TRACK 56 AUDIO
    TITLE "0:"
    INDEX 01 01:09:09
  TRACK 57 AUDIO
    TITLE "13:cjc019_3395"
    INDEX 01 01:09:65
  TRACK 58 AUDIO
    TITLE "0:"
    INDEX 01 01:11:27
  TRACK 59 AUDIO
    TITLE "14:cjc019_3396"
    INDEX 01 01:12:11
  TRACK 60 AUDIO
    TITLE "0:"
    INDEX 01 01:13:44
  TRACK 61 AUDIO
    TITLE "13:cjc019_3397"
    INDEX 01 01:14:25
  TRACK 62 AUDIO
    TITLE "0:"
    INDEX 01 01:15:52
  TRACK 63 AUDIO
    TITLE "14:cjc019_3398"
    INDEX 01 01:16:36
  TRACK 64 AUDIO
    TITLE "0:"
    INDEX 01 01:18:64
  TRACK 65 AUDIO
    TITLE "13:cjc019_3399"
    INDEX 01 01:19:48
  TRACK 66 AUDIO
    TITLE "0:"
    INDEX 01 01:20:61
  TRACK 67 AUDIO
    TITLE "14:cjc019_3400"
    INDEX 01 01:21:47
  TRACK 68 AUDIO
    TITLE "0:"
    INDEX 01 01:23:54
  TRACK 69 AUDIO
    TITLE "13:cjc019_3401"
    INDEX 01 01:24:32
  TRACK 70 AUDIO
    TITLE "0:"
    INDEX 01 01:25:51
  TRACK 71 AUDIO
    TITLE "14:cjc019_3402"
    INDEX 01 01:26:40
  TRACK 72 AUDIO
    TITLE "0:"
    INDEX 01 01:28:63
